# xmcd
#
# Track frame offsets: 
#        150
#        29950
#        43600
#        75175
#        100825
#        112375
#        132025
#        159925
#        184225
#        240700
#        258550
#        292600
#
# Disc length: 4511 seconds
#
# Revision: 3
# Processed by: cddbd v1.5.1PL0 Copyright (c) Steve Scherf et al.
# Submitted via: ExactAudioCopy v0.95a5
#
DISCID=9e119d0c
DTITLE=Tom Waits - Romeo is bleeding
DYEAR=1979
DGENRE=Blues
TTITLE0=Romeo Is Bleeding
TTITLE1=Annie's Back In Town
TTITLE2=Jitterburg Boy/Better Off Without a Wife
TTITLE3=I Wish I Was in New Orleans
TTITLE4=Since I Fell For You
TTITLE5=Red Shoes
TTITLE6=Silent Night/Xmas Card frm a Hooker in Minneapolis
TTITLE7=Do the Hokey Cokey
TTITLE8=Panties and a G-String
TTITLE9=Burma Shave
TTITLE10=Tom Trauberts Blues
TTITLE11=Small Change/Big Spender
EXTD=
EXTT0=
EXTT1=
EXTT2=
EXTT3=
EXTT4=(L. Welch]\n
EXTT5=
EXTT6=XMas Card from a Hooker in Minneapolis\n
EXTT7=
EXTT8=
EXTT9=
EXTT10=
EXTT11=(Coleman-Fields]\n
PLAYORDER=
